HIERARCHY
ROOT Hips
{
	OFFSET 0.00000 0.00000 0.00000
	CHANNELS 6 Xposition Yposition Zposition Zrotation Yrotation Xrotation 
	JOINT LHipJoint
	{
		OFFSET 0 0 0
		CHANNELS 3 Zrotation Yrotation Xrotation
		JOINT LeftUpLeg
		{
			OFFSET 1.64577 -1.42384 0.94276
			CHANNELS 3 Zrotation Yrotation Xrotation
			JOINT LeftLeg
			{
				OFFSET 2.11538 -5.81197 0.00000
				CHANNELS 3 Zrotation Yrotation Xrotation
				JOINT LeftFoot
				{
					OFFSET 2.36541 -6.49893 0.00000
					CHANNELS 3 Zrotation Yrotation Xrotation
					JOINT LeftToeBase
					{
						OFFSET 0.17759 -0.48793 1.73865
						CHANNELS 3 Zrotation Yrotation Xrotation
						End Site
						{
							OFFSET 0.00000 -0.00000 0.91205
						}
					}
				}
			}
		}
	}
	JOINT RHipJoint
	{
		OFFSET 0 0 0
		CHANNELS 3 Zrotation Yrotation Xrotation
		JOINT RightUpLeg
		{
			OFFSET -1.43750 -1.42384 0.94276
			CHANNELS 3 Zrotation Yrotation Xrotation
			JOINT RightLeg
			{
				OFFSET -2.10480 -5.78291 0.00000
				CHANNELS 3 Zrotation Yrotation Xrotation
				JOINT RightFoot
				{
					OFFSET -2.34880 -6.45329 0.00000
					CHANNELS 3 Zrotation Yrotation Xrotation
					JOINT RightToeBase
					{
						OFFSET -0.22842 -0.62757 1.80469
						CHANNELS 3 Zrotation Yrotation Xrotation
						End Site
						{
							OFFSET -0.00000 -0.00000 0.95886
						}
					}
				}
			}
		}
	}
	JOINT LowerBack
	{
		OFFSET 0 0 0
		CHANNELS 3 Zrotation Yrotation Xrotation
		JOINT Spine
		{
			OFFSET 0.06217 1.93758 -0.49272
			CHANNELS 3 Zrotation Yrotation Xrotation
			JOINT Spine1
			{
				OFFSET -0.03114 2.03621 -0.05830
				CHANNELS 3 Zrotation Yrotation Xrotation
				JOINT Neck
				{
					OFFSET 0 0 0
					CHANNELS 3 Zrotation Yrotation Xrotation
					JOINT Neck1
					{
						OFFSET 0.04421 1.41010 0.26562
						CHANNELS 3 Zrotation Yrotation Xrotation
						JOINT Head
						{
							OFFSET -0.13407 1.43847 0.06181
							CHANNELS 3 Zrotation Yrotation Xrotation
							End Site
							{
								OFFSET -0.04980 1.45844 -0.00689
							}
						}
					}
				}
				JOINT LeftShoulder
				{
					OFFSET 0 0 0
					CHANNELS 3 Zrotation Yrotation Xrotation
					JOINT LeftArm
					{
						OFFSET 2.18382 1.47753 -0.35694
						CHANNELS 3 Zrotation Yrotation Xrotation
						JOINT LeftForeArm
						{
							OFFSET 5.05460 -0.00000 0.00000
							CHANNELS 3 Zrotation Yrotation Xrotation
							JOINT LeftHand
							{
								OFFSET 3.39013 -0.00000 0.00000
								CHANNELS 3 Zrotation Yrotation Xrotation
								JOINT LeftFingerBase
								{
									OFFSET 0 0 0
									CHANNELS 3 Zrotation Yrotation Xrotation
									JOINT LeftHandIndex1
									{
										OFFSET 0.57242 -0.00000 -0.00000
										CHANNELS 3 Zrotation Yrotation Xrotation
										End Site
										{
											OFFSET 0.46150 -0.00000 -0.00000
										}
									}
								}
								JOINT LThumb
								{
									OFFSET 0 0 0
									CHANNELS 3 Zrotation Yrotation Xrotation
									End Site
									{
										OFFSET 0.46855 -0.00000 0.46855
									}
								}
							}
						}
					}
				}
				JOINT RightShoulder
				{
					OFFSET 0 0 0
					CHANNELS 3 Zrotation Yrotation Xrotation
					JOINT RightArm
					{
						OFFSET -2.06033 1.72839 -0.47437
						CHANNELS 3 Zrotation Yrotation Xrotation
						JOINT RightForeArm
						{
							OFFSET -5.07010 -0.00000 0.00000
							CHANNELS 3 Zrotation Yrotation Xrotation
							JOINT RightHand
							{
								OFFSET -3.14957 -0.00000 -0.00000
								CHANNELS 3 Zrotation Yrotation Xrotation
								JOINT RightFingerBase
								{
									OFFSET 0 0 0
									CHANNELS 3 Zrotation Yrotation Xrotation
									JOINT RightHandIndex1
									{
										OFFSET -0.71819 -0.00000 -0.00000
										CHANNELS 3 Zrotation Yrotation Xrotation
										End Site
										{
											OFFSET -0.57902 -0.00000 -0.00000
										}
									}
								}
								JOINT RThumb
								{
									OFFSET 0 0 0
									CHANNELS 3 Zrotation Yrotation Xrotation
									End Site
									{
										OFFSET -0.58786 -0.00000 0.58786
									}
								}
							}
						}
					}
				}
			}
		}
	}
}
MOTION
Frames: 5
Frame Time: .0083333
17.0233 15.4037 -2.0017 -184.7710 -76.2597 182.3630 0.0000 0.0000 0.0000 -22.9410 -12.5211 -3.2519 2.4766 9.7953 28.3164 1.3247 11.3343 -28.4969 0.0052 0.4644 1.2762 0.0000 0.0000 0.0000 25.6937 12.9135 0.4525 -1.6387 -8.0692 22.9244 -1.5532 -16.2172 -34.1349 -0.6860 5.2954 -14.7530 -1.1242 0.4889 8.0320 -0.4310 0.4297 3.8799 0.1526 0.1473 -0.5006 6.6439 3.1299 -8.8571 -1.5483 3.4816 5.7226 -1.4906 1.8101 3.6251 -0.0000 -0.0000 0.0000 -22.1502 -21.5711 6.1837 26.7355 -37.9258 -9.3361 -0.0000 -0.0000 5.1025 55.7482 11.1251 15.8210 -7.1250 0.0000 -0.0000 27.7549 47.1427 1.5860 -0.0000 -0.0000 0.0000 76.9015 -4.7722 48.1141 -24.1864 35.3608 -7.8142 0.0000 -0.0000 -23.3350 -16.0207 2.1626 -0.6208 7.1250 -0.0000 -0.0000 8.1237 -27.7003 3.4484
17.0107 15.4004 -1.9941 -184.3780 -76.4373 182.0160 0.0000 0.0000 0.0000 -22.8464 -12.6649 -3.0757 2.4464 9.7397 28.1379 1.3050 11.3555 -28.3772 0.0008 0.1828 0.5024 0.0000 0.0000 0.0000 25.7970 13.0156 0.5244 -1.6341 -8.0582 22.8909 -1.5384 -16.4240 -34.2377 -0.6959 5.3327 -14.8600 -1.0873 0.4986 7.8402 -0.3871 0.4527 3.8410 0.1762 0.1606 -0.4353 5.8335 2.5827 -8.3001 -0.0893 2.7679 5.3034 -0.9063 1.4869 3.2822 0.0000 0.0000 0.0000 -23.4240 -20.5495 10.2691 28.6615 -39.7181 -10.5437 -0.0000 -0.0000 5.0293 60.2992 15.5537 25.1776 -7.1250 0.0000 -0.0000 37.0092 55.1521 10.2545 0.0000 0.0000 0.0000 77.1214 -5.1580 47.5758 -23.8665 35.0227 -7.6298 0.0000 -0.0000 -23.1534 -16.2691 1.8526 -0.5405 7.1250 -0.0000 -0.0000 7.9545 -28.0188 3.3149
16.9997 15.3978 -1.9839 -184.4780 -76.7742 182.1300 0.0000 0.0000 0.0000 -22.8461 -12.7966 -2.9883 2.4240 9.6984 28.0054 1.2699 11.3753 -28.1482 0.0026 -0.3286 -0.9028 0.0000 0.0000 0.0000 25.7899 13.1057 0.6107 -1.6350 -8.0604 22.8978 -1.5725 -16.5969 -34.5871 -0.6608 5.1990 -14.4770 -1.1344 0.4807 7.6684 -0.3764 0.4309 3.8359 0.2164 0.1497 -0.3459 5.9699 2.5029 -8.7558 0.4318 2.5646 5.3886 -0.7660 1.4092 3.3860 0.0000 0.0000 0.0000 -24.3913 -19.6272 14.5570 30.9431 -41.6882 -12.0320 -0.0000 -0.0000 4.8035 55.8057 10.8389 15.4702 -7.1250 0.0000 -0.0000 27.6540 46.7290 1.2757 0.0000 0.0000 0.0000 77.3046 -5.5340 47.0539 -23.5946 34.7326 -7.4743 0.0000 -0.0000 -22.9394 -16.4807 1.5656 -0.4631 7.1250 -0.0000 -0.0000 7.8118 -28.3146 3.1992
16.9939 15.3951 -1.9714 -184.2030 -77.2571 181.8460 0.0000 0.0000 0.0000 -22.7459 -12.8320 -2.9789 2.4086 9.6697 27.9137 1.2409 11.1964 -27.7952 0.0095 -0.6292 -1.7290 0.0000 0.0000 0.0000 25.8991 13.1767 0.7179 -1.6398 -8.0715 22.9316 -1.6120 -16.8526 -35.0381 -0.6176 5.0295 -13.9927 -1.0910 0.4100 7.6386 -0.3221 0.3435 3.8042 0.2547 0.1074 -0.3612 5.8477 2.2693 -9.0123 0.9716 2.1973 5.5516 -0.5850 1.2485 3.4698 0.0000 0.0000 0.0000 -25.0531 -18.9495 18.7738 33.3219 -43.5760 -13.6434 -0.0000 -0.0000 4.7072 57.2678 11.3360 17.0036 -7.1250 0.0000 -0.0000 29.5862 47.8817 2.2941 0.0000 0.0000 0.0000 77.3538 -5.8973 46.7233 -23.3548 34.4746 -7.3382 0.0000 -0.0000 -22.8239 -16.3735 1.2637 -0.3713 7.1250 -0.0000 -0.0000 7.9161 -28.6264 3.1837
16.9898 15.3934 -1.9565 -183.7470 -77.7373 181.4190 0.0000 0.0000 0.0000 -22.6602 -12.7898 -3.0608 2.4010 9.6556 27.8684 1.1792 11.2479 -27.3950 0.0338 -1.1864 -3.2619 0.0000 0.0000 0.0000 25.9942 13.1485 0.7545 -1.6380 -8.0675 22.9193 -1.5854 -17.2261 -35.2312 -0.6576 5.1869 -14.4423 -1.0364 0.3189 7.6139 -0.2446 0.2308 3.7416 0.3126 0.0533 -0.4108 5.7107 2.1036 -9.0797 1.4029 1.9494 5.5386 -0.4325 1.1386 3.4627 -0.0000 0.0000 0.0000 -25.4805 -18.5947 22.7291 35.6781 -45.2903 -15.2933 -0.0000 -0.0000 5.7053 55.3409 8.2903 11.7803 -7.1250 0.0000 -0.0000 25.8109 42.7408 -1.5519 -0.0000 0.0000 0.0000 77.3892 -6.1049 46.4474 -23.0323 34.1241 -7.1564 0.0000 -0.0000 -22.5413 -15.9554 0.8739 -0.2498 7.1250 -0.0000 -0.0000 8.2696 -29.0272 3.2490
